
<svg version="1.0" xmlns="http://www.w3.org/2000/svg"
 width="300.000000pt" height="300.000000pt" viewBox="0 0 300.000000 300.000000"
 preserveAspectRatio="xMidYMid meet">
<metadata>
Created by potrace 1.10, written by Peter Selinger 2001-2011
</metadata>
<g transform="translate(0.000000,300.000000) scale(0.100000,-0.100000)"
fill="#000000" stroke="none">
<path d="M1403 2070 c-211 -38 -389 -195 -453 -399 -29 -92 -28 -262 3 -352
49 -143 151 -262 282 -330 97 -50 155 -64 265 -64 110 0 168 14 265 64 80 41
187 141 229 214 56 95 76 172 76 293 0 72 -5 129 -16 165 -53 181 -212 340
-393 393 -69 20 -191 28 -258 16z m270 -63 c91 -33 144 -67 209 -132 55 -55
110 -143 130 -208 19 -62 27 -172 17 -246 -24 -196 -180 -377 -376 -436 -63
-19 -243 -19 -306 0 -141 43 -263 148 -328 281 -100 206 -60 448 99 609 64 64
117 98 206 131 89 33 258 34 349 1z"/>
<path d="M1376 1504 c-47 -81 -86 -151 -86 -156 0 -5 8 -8 17 -6 10 2 46 53
83 114 36 62 69 113 74 113 6 2 86 -123 86 -135 0 -2 -13 -1 -29 2 -23 5 -32
2 -40 -15 -11 -20 -9 -21 39 -21 44 0 52 -3 62 -25 10 -22 44 -43 54 -33 3 4
-157 292 -169 304 -2 3 -43 -61 -91 -142z"/>
<path d="M1523 1635 c-7 -21 147 -289 170 -293 9 -2 17 1 17 6 0 5 -36 71 -80
146 -44 75 -80 141 -80 146 0 16 -20 12 -27 -5z"/>
<path d="M1447 1498 c-51 -85 -87 -151 -83 -155 14 -14 44 13 70 62 16 30 35
55 42 55 18 0 17 20 -1 43 -13 18 -14 18 -28 -5z"/>
</g>
</svg>
